<?xml version="1.0" encoding="UTF-8"?>
<svg version="1.1" xmlns="http://www.w3.org/2000/svg" width="400" height="560">
<path d="M0 0 C132 0 264 0 400 0 C400 184.8 400 369.6 400 560 C268 560 136 560 0 560 C0 375.2 0 190.4 0 0 Z " fill="#FEFEFE" transform="translate(0,0)"/>
<path d="M0 0 C0.37125 0.78375 0.7425 1.5675 1.125 2.375 C3.33069684 5.46297558 3.97364718 5.49884338 7.5625 6.1875 C8.34753906 6.30480469 9.13257813 6.42210937 9.94140625 6.54296875 C13 7 13 7 14.88427734 7.48144531 C23.12616804 9.49289124 31.42248387 9.37216713 39.85546875 9.37060547 C42.46682684 9.37494487 45.07644329 9.41125588 47.6875 9.44921875 C57.208999 9.50883498 65.91674225 8.82389044 75.11560059 6.2281189 C79.77371438 4.9714006 82.58138366 5.02338717 87 7 C88.01111093 3.95086772 88.01111093 3.95086772 87 1 C95.17238908 1.0289801 100.99222716 2.55971275 108.15625 6.46484375 C110.6239145 7.79697582 113.01064534 8.87671046 115.625 9.875 C120.54225701 11.77793848 125.36491329 13.87104008 130.1875 16 C131.32856201 16.49862549 131.32856201 16.49862549 132.49267578 17.00732422 C134.67664388 17.97612351 136.84192472 18.97490158 139 20 C139.93900146 20.44279297 139.93900146 20.44279297 140.89697266 20.89453125 C146.50631021 23.78927585 150.80728547 27.4715245 152.85595703 33.53222656 C153.5501004 36.55256101 154.07916442 39.56387469 154.5625 42.625 C154.75956543 43.75147949 154.95663086 44.87795898 155.15966797 46.03857422 C155.79391842 49.68914933 156.39658551 53.34421449 157 57 C157.43619631 59.53170034 157.87501048 62.06295099 158.31640625 64.59375 C159.17842932 69.54686548 160.03295145 74.50114603 160.87890625 79.45703125 C163.29129072 93.55973847 166.01441167 107.47453606 169.921875 121.25 C171.79845745 128.04818547 173.45002424 134.9689472 172 142 C170.10534275 144.7833018 167.8864222 146.32184756 165 148 C164.35546875 148.38671875 163.7109375 148.7734375 163.046875 149.171875 C161.37860976 150.13918846 159.69041174 151.07193081 158 152 C157.34 152.66 156.68 153.32 156 154 C150.35334727 153.65428657 145.29587597 151.90939746 140 150 C140.0825 151.2375 140.165 152.475 140.25 153.75 C140.2806402 157.73935354 139.50814726 160.41924604 137.9375 164.0625 C135.7941014 170.07072036 135.94360452 175.20805872 136.34765625 181.52734375 C136.46127446 183.68007474 136.57120497 185.83300265 136.67797852 187.98608398 C136.73446564 189.12488007 136.79095276 190.26367615 136.84915161 191.4369812 C137.11059122 197.61214976 137.19514122 203.78903527 137.28125 209.96875 C137.30953636 211.87405739 137.30953636 211.87405739 137.33839417 213.81785583 C137.40448661 218.37834223 137.46661677 222.93887279 137.52606201 227.49945068 C137.5854278 232.05179662 137.65123841 236.60401853 137.71875 241.15625 C137.73911316 242.91721008 137.73911316 242.91721008 137.7598877 244.71374512 C137.86240788 251.53719027 137.86240788 251.53719027 138.51220703 258.32348633 C139.02082537 262.15696156 139.11012852 265.80191124 139.0859375 269.66796875 C139.08193939 270.42256882 139.07794128 271.17716888 139.07382202 271.95463562 C139.05632851 274.63652963 139.02878614 277.31820373 139 280 C138.98972778 281.06655823 138.97945557 282.13311646 138.96887207 283.23199463 C138.89532262 290.62973399 138.7967877 298.02685274 138.68261719 305.42407227 C138.64407386 308.02525688 138.60926839 310.62649946 138.578125 313.2277832 C138.53215561 317.04396126 138.47432638 320.85980523 138.4140625 324.67578125 C138.40251129 325.82089676 138.39096008 326.96601227 138.37905884 328.14582825 C138.27594272 333.86542775 137.95285012 339.52444508 137.28662109 345.20776367 C137.10079971 346.80245735 137.10079971 346.80245735 136.91122437 348.42936707 C136 351 136 351 133.64614868 352.34638977 C130.31069215 353.17026204 127.42313249 353.25356537 124 353 C123.01 352.34 122.02 351.68 121 351 C117.94506463 350.70652786 117.94506463 350.70652786 114.46875 350.76953125 C112.54095703 350.77243164 112.54095703 350.77243164 110.57421875 350.77539062 C109.90567871 350.78159424 109.23713867 350.78779785 108.54833984 350.79418945 C106.50735983 350.81243421 104.46683428 350.81469909 102.42578125 350.81445312 C95.60545643 350.67790912 95.60545643 350.67790912 89 352 C87.37810033 352.11820625 85.75115453 352.1751432 84.125 352.1875 C83.28195313 352.20167969 82.43890625 352.21585937 81.5703125 352.23046875 C79 352 79 352 76.64604187 350.99780273 C73.89515347 349.96046315 72.0129014 349.76780707 69.09301758 349.8046875 C68.1446553 349.81129395 67.19629303 349.81790039 66.2191925 349.82470703 C64.69723518 349.84960205 64.69723518 349.84960205 63.14453125 349.875 C62.08771652 349.88257324 61.03090179 349.89014648 59.94206238 349.89794922 C55.43277802 349.93053198 50.9238602 349.98658414 46.41479492 350.04101562 C43.11639111 350.07742238 39.81804819 350.101469 36.51953125 350.125 C35.51501419 350.14159668 34.51049713 350.15819336 33.47554016 350.17529297 C27.06755048 350.21920234 21.22820107 349.4873138 15 348 C7.85533291 346.4770578 0.9795338 345.81993478 -6.3125 345.8125 C-7.0653125 345.81169434 -7.818125 345.81088867 -8.59375 345.81005859 C-13.15033459 345.85542282 -17.4869792 346.32051148 -22 347 C-32.98712578 347.88552954 -43.98039288 348.0998254 -55 348.125 C-56.13993408 348.12959229 -57.27986816 348.13418457 -58.4543457 348.13891602 C-59.52128662 348.13690186 -60.58822754 348.1348877 -61.6875 348.1328125 C-62.64011719 348.13168457 -63.59273437 348.13055664 -64.57421875 348.12939453 C-67 348 -67 348 -70 347 C-70.05491533 345.31287918 -70.09319918 343.62521475 -70.125 341.9375 C-70.14820312 340.99777344 -70.17140625 340.05804688 -70.1953125 339.08984375 C-70 336 -70 336 -69.02734375 332.734375 C-67.78257456 328.20966267 -67.58623836 323.98143344 -67.4375 319.3125 C-67.37732892 317.64179236 -67.31365258 315.97120646 -67.24609375 314.30078125 C-67.22216553 313.57028564 -67.1982373 312.83979004 -67.17358398 312.0871582 C-67 310 -67 310 -66.51048279 308.12260437 C-66.00647878 306.026939 -65.78988909 304.10000947 -65.65869141 301.95117188 C-65.58323593 300.76581848 -65.58323593 300.76581848 -65.5062561 299.55651855 C-65.42968277 298.27557312 -65.42968277 298.27557312 -65.3515625 296.96875 C-65.23188575 295.10415929 -65.11208959 293.23957624 -64.9921875 291.375 C-64.81032506 288.48059677 -64.63026912 285.58610213 -64.453125 282.69140625 C-63.74436541 271.20627927 -62.78592866 259.79943386 -61.46875 248.3671875 C-59.8225098 233.79890208 -59.26525325 219.27308841 -58.875 204.625 C-58.79727728 202.00485624 -58.71865369 199.38473907 -58.63916016 196.76464844 C-58.44752691 190.35764594 -58.26846209 183.95038361 -58.09570312 177.54284668 C-58.00573838 174.21242984 -57.91353731 170.8820848 -57.8203125 167.55175781 C-57.52662973 157.03497043 -57.24907721 146.51794316 -57 136 C-57.66 136 -58.32 136 -59 136 C-59.26941406 136.57492187 -59.53882813 137.14984375 -59.81640625 137.7421875 C-61.02481381 140.04733459 -62.38066808 142.0413013 -63.9375 144.125 C-64.44152344 144.80820312 -64.94554688 145.49140625 -65.46484375 146.1953125 C-67 148 -67 148 -70 150 C-77.10717692 149.36049942 -83.26671556 141.73328444 -88 137 C-88.62390625 136.69449219 -89.2478125 136.38898438 -89.890625 136.07421875 C-92.16710362 134.91357316 -93.47216753 134.06391403 -95 132 C-96.65171319 120.11414237 -91.09004736 107.43821928 -86.9375 96.5625 C-85.21388375 91.96619001 -84.07775799 87.34066514 -83 82.5625 C-81.16040044 74.40676318 -78.71068471 66.63122869 -75.8125 58.78515625 C-75.4 57.65980469 -74.9875 56.53445312 -74.5625 55.375 C-73.91474609 53.63089844 -73.91474609 53.63089844 -73.25390625 51.8515625 C-72.28953433 49.0798108 -71.61171306 46.33625207 -71.02734375 43.4609375 C-69.3032313 35.2301597 -67.60115245 28.57389209 -60.41040039 23.42407227 C-50.71680563 17.43819591 -39.15875571 14.0613029 -28.47998047 10.27368164 C-20.80232794 7.46364142 -13.30893894 4.23136658 -5.9375 0.69921875 C-4 0 -4 0 0 0 Z " fill="#0C0C0B" transform="translate(153,146)"/>
<path d="M0 0 C4.45155754 3.77263715 8.03896044 8.14295819 11.6171875 12.734375 C13.44120702 15.14403076 13.44120702 15.14403076 15.3203125 16.890625 C16.5625 18.1875 16.5625 18.1875 16.5625 20.1875 C17.10132813 20.44402344 17.64015625 20.70054687 18.1953125 20.96484375 C22.08350043 22.97309923 25.76591308 25.33691393 29.4921875 27.62890625 C32.601407 29.2072505 35.11614616 29.81200175 38.5625 30.1875 C38.0675 30.64125 37.5725 31.095 37.0625 31.5625 C35.33640663 33.06385519 35.33640663 33.06385519 35.5625 35.1875 C34.9025 35.1875 34.2425 35.1875 33.5625 35.1875 C33.5625 35.8475 33.5625 36.5075 33.5625 37.1875 C32.06795288 36.88102539 32.06795288 36.88102539 30.54321289 36.56835938 C26.2229929 36.15501726 22.95497789 36.90323503 18.87109375 38.09375 C9.93776789 40.42774582 1.37777543 40.80059381 -7.82104492 40.70898438 C-10.37059876 40.68753702 -12.91732737 40.70892191 -15.46679688 40.734375 C-27.88618816 40.75348612 -39.61576301 39.128079 -51.4375 35.1875 C-52.10416667 33.52083333 -52.77083333 31.85416667 -53.4375 30.1875 C-54.4275 29.8575 -55.4175 29.5275 -56.4375 29.1875 C-55.42558594 28.94128906 -54.41367188 28.69507813 -53.37109375 28.44140625 C-49.36571983 27.29025151 -45.97373387 25.39608253 -42.5 23.125 C-41.88954834 22.72869385 -41.27909668 22.3323877 -40.65014648 21.92407227 C-35.35428435 18.36042916 -31.38316275 14.19716169 -27.4375 9.1875 C-26.19658454 7.72142874 -24.94686278 6.26275567 -23.6875 4.8125 C-23.15640625 4.18601562 -22.6253125 3.55953125 -22.078125 2.9140625 C-15.90732731 -3.57996745 -7.49832412 -5.49265351 0 0 Z " fill="#582B0A" transform="translate(206.4375,115.8125)"/>
<path d="M0 0 C6.01077557 4.3993341 9.98468416 9.17572183 11.5 16.61328125 C12.22040204 23.5574845 11.47136337 28.80500062 7.5 34.61328125 C3.49250418 39.46446039 0.17839979 41.13846448 -6.01171875 41.9375 C-12.32076335 42.33346514 -16.4230015 41.35457725 -21.48828125 37.53515625 C-27.0865766 32.18688186 -30.58949905 26.2111726 -30.875 18.42578125 C-30.80424897 11.7309651 -28.54321129 7.89058571 -24.078125 3.08203125 C-17.47620422 -3.02297077 -7.88068576 -4.37131788 0 0 Z " fill="#14120F" transform="translate(250.5,229.38671875)"/>
<path d="M0 0 C1.27948473 0.66309063 2.55141638 1.34090879 3.81640625 2.03125 C5.21071356 2.7608448 6.60525227 3.48999751 8 4.21875 C8.71397949 4.59773437 9.42795898 4.97671875 10.16357422 5.3671875 C13.87173566 7.31566818 17.62709214 9.16865325 21.37890625 11.03125 C22.73329092 11.70789715 24.08747825 12.38493955 25.44140625 13.0625 C26.89546875 13.78953125 26.89546875 13.78953125 28.37890625 14.53125 C25.88497018 18.27215411 24.79466981 18.25168928 20.4921875 19.19140625 C12.05638646 20.83597335 3.74181072 21.02008546 -4.83325195 20.97729492 C-7.42024732 20.96879386 -10.00501822 20.99764607 -12.59179688 21.02929688 C-23.79133301 21.0736491 -33.8567351 19.60640674 -44.62109375 16.53125 C-44.62109375 15.87125 -44.62109375 15.21125 -44.62109375 14.53125 C-43.71568848 14.12398682 -43.71568848 14.12398682 -42.79199219 13.70849609 C-39.98387691 12.44361306 -37.17737203 11.17520331 -34.37109375 9.90625 C-33.36361084 9.4520166 -32.35612793 8.9977832 -31.31811523 8.52978516 C-25.13345153 5.72532655 -19.08432165 2.80897566 -13.15625 -0.5078125 C-8.33727174 -2.33442059 -4.72976963 -1.91843946 0 0 Z " fill="#F9F8F7" transform="translate(203.62109375,135.46875)"/>
<path d="M0 0 C6.01077557 4.3993341 9.98468416 9.17572183 11.5 16.61328125 C12.22040204 23.5574845 11.47136337 28.80500062 7.5 34.61328125 C3.49250418 39.46446039 0.17839979 41.13846448 -6.01171875 41.9375 C-12.32076335 42.33346514 -16.4230015 41.35457725 -21.48828125 37.53515625 C-27.0865766 32.18688186 -30.58949905 26.2111726 -30.875 18.42578125 C-30.80424897 11.7309651 -28.54321129 7.89058571 -24.078125 3.08203125 C-17.47620422 -3.02297077 -7.88068576 -4.37131788 0 0 Z M-26.15234375 8.67578125 C-28.93269647 12.67304198 -28.90687782 16.91053066 -28.5 21.61328125 C-27.63734032 24.01885978 -27.63734032 24.01885978 -26.5 25.61328125 C-26.5 24.95328125 -26.5 24.29328125 -26.5 23.61328125 C-25.18 23.61328125 -23.86 23.61328125 -22.5 23.61328125 C-22.4175 24.17015625 -22.335 24.72703125 -22.25 25.30078125 C-21.26104459 28.35006044 -19.65242534 30.26518088 -17.5 32.61328125 C-16.84 32.61328125 -16.18 32.61328125 -15.5 32.61328125 C-15.17 33.60328125 -14.84 34.59328125 -14.5 35.61328125 C-14.5 34.95328125 -14.5 34.29328125 -14.5 33.61328125 C-13.84 33.94328125 -13.18 34.27328125 -12.5 34.61328125 C-10.95976004 34.68278666 -9.41665012 34.69780482 -7.875 34.67578125 C-6.64910156 34.66224609 -6.64910156 34.66224609 -5.3984375 34.6484375 C-4.77195313 34.63683594 -4.14546875 34.62523437 -3.5 34.61328125 C-3.17 35.60328125 -2.84 36.59328125 -2.5 37.61328125 C-2.17 36.62328125 -1.84 35.63328125 -1.5 34.61328125 C-1.83 33.95328125 -2.16 33.29328125 -2.5 32.61328125 C-1.5409375 32.42765625 -1.5409375 32.42765625 -0.5625 32.23828125 C0.118125 32.03203125 0.79875 31.82578125 1.5 31.61328125 C1.83 30.95328125 2.16 30.29328125 2.5 29.61328125 C0.19 29.61328125 -2.12 29.61328125 -4.5 29.61328125 C-3.84 24.99328125 -3.18 20.37328125 -2.5 15.61328125 C-0.52 15.61328125 1.46 15.61328125 3.5 15.61328125 C3.22459296 11.79514678 3.22459296 11.79514678 1.5 8.61328125 C2.16 8.28328125 2.82 7.95328125 3.5 7.61328125 C4.16 10.58328125 4.82 13.55328125 5.5 16.61328125 C3.52 17.27328125 1.54 17.93328125 -0.5 18.61328125 C0.16 19.27328125 0.82 19.93328125 1.5 20.61328125 C1.72543745 22.64221829 1.94932457 24.67143565 2.1484375 26.703125 C2.59352834 29.12145188 3.49396458 30.21777835 5.5 31.61328125 C4.84 31.61328125 4.18 31.61328125 3.5 31.61328125 C3.5 32.27328125 3.5 32.93328125 3.5 33.61328125 C2.84 33.61328125 2.18 33.61328125 1.5 33.61328125 C1.83 34.60328125 2.16 35.59328125 2.5 36.61328125 C6.55280172 32.88043756 9.18589247 30.15534491 9.68359375 24.54296875 C9.94103477 15.608251 7.72409712 10.01877603 1.5859375 3.50390625 C-1.89182969 0.35177269 -4.84082923 -0.2063741 -9.375 -0.69921875 C-17.06579548 0.0698608 -21.22587706 2.7505548 -26.15234375 8.67578125 Z " fill="#17110C" transform="translate(250.5,229.38671875)"/>
<path d="M0 0 C4.33999702 0.73272677 5.99230256 2.71770924 8.671875 6.046875 C12.24350819 11.29927675 12.87830113 17.82014626 12 24 C10.4420486 28.48198826 8.98879801 31.34080133 5 34 C4.67 33.01 4.34 32.02 4 31 C4.66 31 5.32 31 6 31 C6 30.34 6 29.68 6 29 C6.66 29 7.32 29 8 29 C7.525625 28.67 7.05125 28.34 6.5625 28 C4.79738174 25.74064862 4.7111468 24.72971083 4.4375 21.9375 C4.41483656 17.99837319 4.41483656 17.99837319 2 16 C3.98 15.34 5.96 14.68 8 14 C7.41196203 10.97580475 6.77321882 7.98241547 6 5 C5.01 5.495 5.01 5.495 4 6 C4.99 7.485 4.99 7.485 6 9 C6 10.32 6 11.64 6 13 C4.02 13 2.04 13 0 13 C-0.12375 13.969375 -0.2475 14.93875 -0.375 15.9375 C-0.58125 16.948125 -0.7875 17.95875 -1 19 C-1.66 19.33 -2.32 19.66 -3 20 C-3.061875 18.39125 -3.061875 18.39125 -3.125 16.75 C-4.24805666 11.93690004 -5.95190127 11.56104205 -10 9 C-11.375 5.75 -11.375 5.75 -12 3 C-6.5610835 2.78244334 -2.12919186 2.89571616 3 5 C3 4.01 3 3.02 3 2 C2.01 2 1.02 2 0 2 C0 1.34 0 0.68 0 0 Z " fill="#110E0B" transform="translate(248,232)"/>
<path d="M0 0 C0.66 0.66 1.32 1.32 2 2 C1.34 2 0.68 2 0 2 C0 2.66 0 3.32 0 4 C0.99 4 1.98 4 3 4 C3 4.99 3 5.98 3 7 C-4.425 6.01 -4.425 6.01 -12 5 C-11.67 7.31 -11.34 9.62 -11 12 C-11.671875 15.2734375 -11.671875 15.2734375 -12.75 18.375 C-13.09546875 19.41398437 -13.4409375 20.45296875 -13.796875 21.5234375 C-14.19390625 22.34070313 -14.5909375 23.15796875 -15 24 C-15.99 24.33 -16.98 24.66 -18 25 C-17.67 22.69 -17.34 20.38 -17 18 C-17.66 18.33 -18.32 18.66 -19 19 C-19.33 17.35 -19.66 15.7 -20 14 C-20.33 15.32 -20.66 16.64 -21 18 C-22.65 17.67 -24.3 17.34 -26 17 C-25.87693809 11.0930282 -24.08723252 8.00022815 -20.015625 3.73828125 C-14.08460417 -1.3766495 -7.48034851 -1.84923114 0 0 Z " fill="#1B1612" transform="translate(248,230)"/>
<path d="M0 0 C1.32 0.33 2.64 0.66 4 1 C4 1.66 4 2.32 4 3 C5.32 3.33 6.64 3.66 8 4 C8 4.66 8 5.32 8 6 C9.134375 6.12375 10.26875 6.2475 11.4375 6.375 C12.613125 6.58125 13.78875 6.7875 15 7 C15.33 7.66 15.66 8.32 16 9 C19.71599191 9.20086443 20.77208445 9.1519437 24 7 C26.375 6.625 26.375 6.625 29 7 C30.7074998 8.28062485 32.36643049 9.62631655 34 11 C38.83640394 14.08668452 43.16986634 16.55152818 49 17 C48.505 17.45375 48.01 17.9075 47.5 18.375 C45.77390663 19.87635519 45.77390663 19.87635519 46 22 C45.34 22 44.68 22 44 22 C44 22.66 44 23.32 44 24 C42.56138706 23.91253716 41.12402492 23.80434652 39.6875 23.6875 C38.88699219 23.62949219 38.08648437 23.57148438 37.26171875 23.51171875 C35 23 35 23 33.61694336 21.59838867 C31.80350079 19.80575565 30.18172058 18.96893662 27.8671875 17.9140625 C27.06023437 17.54023438 26.25328125 17.16640625 25.421875 16.78125 C24.58140625 16.3996875 23.7409375 16.018125 22.875 15.625 C17.1231321 12.99401941 11.50876463 10.26138844 6.01220703 7.12646484 C4.03595633 6.02012891 2.03326645 4.99696748 0 4 C0 2.68 0 1.36 0 0 Z " fill="#462B1B" transform="translate(196,129)"/>
<path d="M0 0 C6.01077557 4.3993341 9.98468416 9.17572183 11.5 16.61328125 C12.22040204 23.5574845 11.47136337 28.80500062 7.5 34.61328125 C3.49250418 39.46446039 0.17839979 41.13846448 -6.01171875 41.9375 C-12.32076335 42.33346514 -16.4230015 41.35457725 -21.48828125 37.53515625 C-27.0865766 32.18688186 -30.58949905 26.2111726 -30.875 18.42578125 C-30.80424897 11.7309651 -28.54321129 7.89058571 -24.078125 3.08203125 C-17.47620422 -3.02297077 -7.88068576 -4.37131788 0 0 Z M-26.15234375 8.67578125 C-28.95089127 12.6992003 -28.93508105 16.89306229 -28.5 21.61328125 C-27.19091698 28.61507391 -24.18748017 33.31715889 -18.5 37.61328125 C-12.59554711 40.50269437 -6.40499721 40.43931194 -0.25 38.42578125 C4.3288382 36.51344294 6.37543291 33.63750201 8.75 29.36328125 C10.45124251 23.12539206 10.04107507 16.54245642 7.5 10.61328125 C4.34418598 6.23422739 1.24391216 2.48523733 -3.625 0.05078125 C-13.65195698 -1.47506003 -19.71906687 0.93826372 -26.15234375 8.67578125 Z " fill="#B2ADA7" transform="translate(250.5,229.38671875)"/>
<path d="M0 0 C0.66 0.33 1.32 0.66 2 1 C2 2.32 2 3.64 2 5 C1.360625 5.12375 0.72125 5.2475 0.0625 5.375 C-0.618125 5.58125 -1.29875 5.7875 -2 6 C-2.33 6.66 -2.66 7.32 -3 8 C-3.66 8.66 -4.32 9.32 -5 10 C-4.67 10.66 -4.34 11.32 -4 12 C-4.83357099 15.55273705 -5.66073469 16.77056878 -8.71484375 18.8359375 C-9.77832031 19.34382813 -10.84179688 19.85171875 -11.9375 20.375 C-12.99839844 20.89835937 -14.05929688 21.42171875 -15.15234375 21.9609375 C-18 23 -18 23 -21 22 C-21.66666667 20.33333333 -22.33333333 18.66666667 -23 17 C-23.99 16.67 -24.98 16.34 -26 16 C-24.99195313 15.75894531 -23.98390625 15.51789063 -22.9453125 15.26953125 C-18.77657335 14.07471648 -15.46482736 12.07414347 -11.875 9.6875 C-10.98361328 9.11999023 -10.98361328 9.11999023 -10.07421875 8.54101562 C-6.24575771 6.04364203 -3.12715386 3.33366403 0 0 Z " fill="#583015" transform="translate(176,129)"/>
<path d="M0 0 C-0.43300764 6.81987029 -1.90787824 11.91643021 -5 18 C-5.66 18 -6.32 18 -7 18 C-6.67 15.69 -6.34 13.38 -6 11 C-6.99 11.495 -6.99 11.495 -8 12 C-8.33 10.35 -8.66 8.7 -9 7 C-9.33 8.32 -9.66 9.64 -10 11 C-11.65 10.67 -13.3 10.34 -15 10 C-14.25 3.25 -14.25 3.25 -12 1 C-10.35 1.99 -8.7 2.98 -7 4 C-6.87625 3.360625 -6.7525 2.72125 -6.625 2.0625 C-6.41875 1.381875 -6.2125 0.70125 -6 0 C-3.50907189 -1.24546405 -2.58919267 -0.7767578 0 0 Z " fill="#15110D" transform="translate(237,237)"/>
<path d="M0 0 C1.65 0.33 3.3 0.66 5 1 C6.0326802 3.78823655 6.04509293 4.8677274 5.0625 7.75 C4.711875 8.4925 4.36125 9.235 4 10 C4.66 10.66 5.32 11.32 6 12 C4.06891037 13.03290841 2.129882 14.05098672 0.1875 15.0625 C-0.89144531 15.63097656 -1.97039062 16.19945312 -3.08203125 16.78515625 C-6 18 -6 18 -9 17 C-8.34 17 -7.68 17 -7 17 C-7.2475 16.2575 -7.495 15.515 -7.75 14.75 C-8 12 -8 12 -6.25 9.75 C-4 8 -4 8 -1 7 C-1 5.68 -1 4.36 -1 3 C-0.67 2.01 -0.34 1.02 0 0 Z " fill="#562A0A" transform="translate(178,127)"/>
<path d="M0 0 C0.66 0 1.32 0 2 0 C3.90799568 7.39348327 3.73840026 13.59958571 0.16796875 20.37109375 C-1 22 -1 22 -4 24 C-4.33 23.01 -4.66 22.02 -5 21 C-4.34 21 -3.68 21 -3 21 C-3 20.34 -3 19.68 -3 19 C-2.34 19 -1.68 19 -1 19 C-1.474375 18.67 -1.94875 18.34 -2.4375 18 C-4.20261826 15.74064862 -4.2888532 14.72971083 -4.5625 11.9375 C-4.58516344 7.99837319 -4.58516344 7.99837319 -7 6 C-5.5459375 5.62875 -5.5459375 5.62875 -4.0625 5.25 C-2.5465625 4.63125 -2.5465625 4.63125 -1 4 C-0.03122943 1.96756452 -0.03122943 1.96756452 0 0 Z " fill="#191511" transform="translate(257,242)"/>
<path d="M0 0 C2 3 2 3 1.6875 5.0625 C1 7 1 7 0 9 C0.24225977 10.76503548 0.4870281 12.52975188 0.7421875 14.29296875 C1.30124549 20.16307769 1.06904998 26.10773482 1 32 C-0.485 32.495 -0.485 32.495 -2 33 C-2.73323796 35.01508358 -2.73323796 35.01508358 -3 37 C-4 36 -4 36 -4.1328125 33.63671875 C-4.13023438 32.66347656 -4.12765625 31.69023437 -4.125 30.6875 C-4.12757812 29.72199219 -4.13015625 28.75648438 -4.1328125 27.76171875 C-4 25 -4 25 -3.51147461 23.07055664 C-2.67542659 19.68605866 -2.62445668 16.21942562 -2.4375 12.75 C-2.39431641 12.00492187 -2.35113281 11.25984375 -2.30664062 10.4921875 C-2.20103275 8.661651 -2.10005799 6.83084824 -2 5 C-1.67 5 -1.34 5 -1 5 C-0.67 3.35 -0.34 1.7 0 0 Z " fill="#191918" transform="translate(90,431)"/>
<path d="M0 0 C3.67627125 0.56856216 6.27518936 1.56090042 9.4375 3.5 C12.97155554 5.55069778 15.86305807 6.6817737 20 7 C19.505 7.45375 19.01 7.9075 18.5 8.375 C16.77390663 9.87635519 16.77390663 9.87635519 17 12 C16.34 12 15.68 12 15 12 C15 12.66 15 13.32 15 14 C10.71193127 13.52354792 8.73352513 12.34097516 6 9 C6 8.34 6 7.68 6 7 C4.68 6.67 3.36 6.34 2 6 C2 5.34 2 4.68 2 4 C1.34 3.67 0.68 3.34 0 3 C0.66 2.67 1.32 2.34 2 2 C1.34 1.34 0.68 0.68 0 0 Z " fill="#331A0C" transform="translate(225,139)"/>
<path d="M0 0 C-0.33 3.63 -0.66 7.26 -1 11 C-2.65 11.33 -4.3 11.66 -6 12 C-7 11 -7 11 -7.09765625 8.49609375 C-7.08605469 7.48675781 -7.07445312 6.47742188 -7.0625 5.4375 C-7.05347656 4.42558594 -7.04445312 3.41367188 -7.03515625 2.37109375 C-7.02355469 1.58863281 -7.01195312 0.80617187 -7 0 C-5 -1 -5 -1 0 0 Z " fill="#C0BBB2" transform="translate(245,245)"/>
<path d="M0 0 C0.66 0 1.32 0 2 0 C5.0190678 5.31355932 5.0190678 5.31355932 4.9375 8.25 C3.70891888 10.54335142 2.38346353 11.07736896 0 12 C0.33 12.33 0.66 12.66 1 13 C1.04092937 15.33297433 1.04241723 17.66705225 1 20 C-0.65 20.33 -2.3 20.66 -4 21 C-4.33 20.01 -4.66 19.02 -5 18 C-3.68 18.33 -2.36 18.66 -1 19 C-1 17.68 -1 16.36 -1 15 C-1.99 15 -2.98 15 -4 15 C-4 12.69 -4 10.38 -4 8 C-2.02 8 -0.04 8 2 8 C1.65772428 5.02934491 1.65772428 5.02934491 1 2 C0.34 1.67 -0.32 1.34 -1 1 C-0.67 0.67 -0.34 0.34 0 0 Z " fill="#C2BBB1" transform="translate(252,237)"/>
<path d="M0 0 C0.99 0 1.98 0 3 0 C3.66 1.32 4.32 2.64 5 4 C5.66 3.67 6.32 3.34 7 3 C6.34 5.64 5.68 8.28 5 11 C6.32 11.33 7.64 11.66 9 12 C8.34 13.32 7.68 14.64 7 16 C5 14.1875 5 14.1875 3 12 C3 11.01 3 10.02 3 9 C1.68 9 0.36 9 -1 9 C-1.33 9.66 -1.66 10.32 -2 11 C-2.33 8.36 -2.66 5.72 -3 3 C-2.34 2.67 -1.68 2.34 -1 2 C-1 2.66 -1 3.32 -1 4 C-0.01 4 0.98 4 2 4 C2 3.01 2 2.02 2 1 C1.34 0.67 0.68 0.34 0 0 Z " fill="#0D0906" transform="translate(225,244)"/>
<path d="M0 0 C0.66 0.33 1.32 0.66 2 1 C1.649375 1.66 1.29875 2.32 0.9375 3 C-0.29180347 6.93377109 -0.21223835 10.11391022 1 14 C2.76964157 17.1832911 4.82917476 20.08061433 7 23 C9.4294516 26.6441774 9.16179575 28.71241272 9 33 C7.68 32.67 6.36 32.34 5 32 C5.66 32 6.32 32 7 32 C5.624706 26.89693542 4.04102844 22.84574758 0.8125 18.625 C-2.32387119 14.2045066 -2.58853109 10.71453436 -2.40625 5.3828125 C-2 3 -2 3 0 0 Z " fill="#E5E2DC" transform="translate(190,80)"/>
<path d="M0 0 C0.66 0 1.32 0 2 0 C2.76832158 3.75623886 3.01330689 6.32676253 2 10 C2.33 10.99 2.66 11.98 3 13 C11.25 13 19.5 13 28 13 C28 13.33 28 13.66 28 14 C23.72918086 14.02897435 19.45838691 14.04678996 15.1875 14.0625 C13.36508789 14.07506836 13.36508789 14.07506836 11.50585938 14.08789062 C9.76079102 14.09272461 9.76079102 14.09272461 7.98046875 14.09765625 C6.90692139 14.10289307 5.83337402 14.10812988 4.72729492 14.11352539 C2 14 2 14 -1 13 C-1.02696365 11.20841511 -1.04637917 9.41671527 -1.0625 7.625 C-1.07410156 6.62726563 -1.08570312 5.62953125 -1.09765625 4.6015625 C-1 2 -1 2 0 0 Z " fill="#3C3C3C" transform="translate(84,480)"/>
<path d="M0 0 C5.68886698 -0.72403762 8.34823888 -0.17726462 12.9375 3.375 C16.79558824 6.59117647 16.79558824 6.59117647 18 9 C16.02 9.99 16.02 9.99 14 11 C11 9 11 9 10 6 C7.16666667 4.16666667 7.16666667 4.16666667 4 3 C3.01 3.33 2.02 3.66 1 4 C0.67 2.68 0.34 1.36 0 0 Z " fill="#683719" transform="translate(194,113)"/>
<path d="M0 0 C2.30248246 2.21900878 4.29665384 4.58324093 6.3125 7.0625 C12.07110806 13.59929834 18.71958045 13.44011398 27 14 C24.4833762 16.5166238 23.43509292 16.38193779 19.9375 16.5 C13.57273204 16.3748735 9.63817773 14.25708497 5 10 C2.18779816 6.87825838 0 4.36541522 0 0 Z " fill="#B8B2AA" transform="translate(222,255)"/>
<path d="M0 0 C0.33 1.32 0.66 2.64 1 4 C1.99 4 2.98 4 4 4 C4 5.32 4 6.64 4 8 C2.68 7.67 1.36 7.34 0 7 C0.33 7.66 0.66 8.32 1 9 C3.32156597 9.40729228 5.6568787 9.74438677 8 10 C8.33 10.99 8.66 11.98 9 13 C8.34 13 7.68 13 7 13 C7 13.66 7 14.32 7 15 C5.625 16.625 5.625 16.625 4 18 C3.34 18 2.68 18 2 18 C1.67 16.68 1.34 15.36 1 14 C2.32 13.34 3.64 12.68 5 12 C2.03 11.505 2.03 11.505 -1 11 C-0.67 7.37 -0.34 3.74 0 0 Z " fill="#48433D" transform="translate(247,248)"/>
<path d="M0 0 C0.66 0 1.32 0 2 0 C2 12.54 2 25.08 2 38 C1.67 38 1.34 38 1 38 C0.67 27.11 0.34 16.22 0 5 C-0.99 5.99 -1.98 6.98 -3 8 C-3.66 7.67 -4.32 7.34 -5 7 C-4.21654285 5.82780457 -3.42297164 4.66236332 -2.625 3.5 C-2.18414062 2.8503125 -1.74328125 2.200625 -1.2890625 1.53125 C-0.65097656 0.77328125 -0.65097656 0.77328125 0 0 Z " fill="#DDDDDD" transform="translate(94,282)"/>
<path d="M0 0 C2.5 0.5 2.5 0.5 4.3125 3 C4.704375 3.825 5.09625 4.65 5.5 5.5 C2.0647952 7.79013653 0.514669 7.67842973 -3.5 7.5 C-3.5 6.84 -3.5 6.18 -3.5 5.5 C-4.16 4.84 -4.82 4.18 -5.5 3.5 C-3.74420104 1.28214868 -2.81612229 0.56322446 0 0 Z " fill="#47230C" transform="translate(222.5,135.5)"/>
<path d="M0 0 C1 3 1 3 0 6 C1.65 5.34 3.3 4.68 5 4 C4.67 3.34 4.34 2.68 4 2 C5.32 1.67 6.64 1.34 8 1 C8.66 1.99 9.32 2.98 10 4 C8.06891037 5.03290841 6.129882 6.05098672 4.1875 7.0625 C3.10855469 7.63097656 2.02960938 8.19945312 0.91796875 8.78515625 C-2 10 -2 10 -5 9 C-4.34 9 -3.68 9 -3 9 C-3.2475 8.2575 -3.495 7.515 -3.75 6.75 C-3.8325 5.8425 -3.915 4.935 -4 4 C-2.0625 1.6875 -2.0625 1.6875 0 0 Z " fill="#4C230B" transform="translate(174,135)"/>
<path d="M0 0 C2.64 0 5.28 0 8 0 C8 0.66 8 1.32 8 2 C8.5775 2.0825 9.155 2.165 9.75 2.25 C12.6159304 3.20531013 13.9990764 4.78469173 16 7 C15.67 7.66 15.34 8.32 15 9 C11.62486 7.87495333 8.88567084 6.29176507 5.8125 4.5 C4.72582031 3.8709375 3.63914063 3.241875 2.51953125 2.59375 C1.68808594 2.0678125 0.85664063 1.541875 0 1 C0 0.67 0 0.34 0 0 Z " fill="#3F271A" transform="translate(219,143)"/>
<path d="M0 0 C0.98484375 0.11085938 1.9696875 0.22171875 2.984375 0.3359375 C3.73203125 0.43132812 4.4796875 0.52671875 5.25 0.625 C5.25 0.955 5.25 1.285 5.25 1.625 C7.56 1.955 9.87 2.285 12.25 2.625 C12.25 2.955 12.25 3.285 12.25 3.625 C4.66 3.625 -2.93 3.625 -10.75 3.625 C-8.48097508 -0.91304983 -4.52894812 -0.53916049 0 0 Z " fill="#010101" transform="translate(97.75,489.375)"/>
<path d="M0 0 C4 2 4 2 7 4 C5.35 4.33 3.7 4.66 2 5 C2.09539062 5.84304687 2.19078125 6.68609375 2.2890625 7.5546875 C2.39992187 8.65039062 2.51078125 9.74609375 2.625 10.875 C2.74101562 11.96554688 2.85703125 13.05609375 2.9765625 14.1796875 C2.98429688 15.11039063 2.99203125 16.04109375 3 17 C2.34 17.66 1.68 18.32 1 19 C0.87625 17.865625 0.7525 16.73125 0.625 15.5625 C0.41875 14.386875 0.2125 13.21125 0 12 C-0.66 11.67 -1.32 11.34 -2 11 C-1.34 7.37 -0.68 3.74 0 0 Z " fill="#1C1A16" transform="translate(236,240)"/>
<path d="M0 0 C-1.93108963 1.03290841 -3.870118 2.05098672 -5.8125 3.0625 C-6.89144531 3.63097656 -7.97039062 4.19945312 -9.08203125 4.78515625 C-12 6 -12 6 -15 5 C-14.34 3.35 -13.68 1.7 -13 0 C-11.58456585 -0.19658808 -10.16755969 -0.38187546 -8.75 -0.5625 C-7.96109375 -0.66691406 -7.1721875 -0.77132812 -6.359375 -0.87890625 C-3.99467126 -1.00027349 -2.2488963 -0.69633257 0 0 Z " fill="#522F1B" transform="translate(170,146)"/>
<path d="M0 0 C2.37166253 1.21788076 4.35319213 2.37332605 6.3125 4.1875 C6.3125 5.1775 6.3125 6.1675 6.3125 7.1875 C4.10800567 6.16398478 2.27406459 5.1565037 0.375 3.625 C-2.10197988 1.89862009 -3.67517886 1.4026658 -6.6875 1.1875 C-9.92986568 2.04521342 -9.92986568 2.04521342 -12.6875 3.1875 C-12.3575 2.1975 -12.0275 1.2075 -11.6875 0.1875 C-7.95535259 -1.67857371 -3.90676733 -1.18111571 0 0 Z " fill="#E7E6E0" transform="translate(204.6875,76.8125)"/>
<path d="M0 0 C1.98 0 3.96 0 6 0 C5.50269348 4.97306516 4.44697666 8.63799813 2 13 C1.34 13 0.68 13 0 13 C0.55105909 9.0507432 1.38935371 5.65079826 3 2 C2.01 2 1.02 2 0 2 C0 1.34 0 0.68 0 0 Z " fill="#B6B2A9" transform="translate(230,242)"/>
<path d="M0 0 C0 0.99 0 1.98 0 3 C-2.64 3.66 -5.28 4.32 -8 5 C-8.33 6.32 -8.66 7.64 -9 9 C-9.99 8.67 -10.98 8.34 -12 8 C-11.875 6.25 -11.875 6.25 -11 4 C-7.31618907 0.98597288 -4.80562023 -0.56536709 0 0 Z " fill="#8D8983" transform="translate(239,232)"/>
<path d="M0 0 C1.65 0.99 3.3 1.98 5 3 C4.67 3.598125 4.34 4.19625 4 4.8125 C2.79212012 7.05386471 2.79212012 7.05386471 3 10 C1.35 9.67 -0.3 9.34 -2 9 C-1.125 2.25 -1.125 2.25 0 0 Z " fill="#26231F" transform="translate(224,238)"/>
<path d="M0 0 C3.04386724 -0.08226668 5.07175348 0.02391783 8 1 C8 1.66 8 2.32 8 3 C8.99 3 9.98 3 11 3 C11 3.99 11 4.98 11 6 C7.37 5.34 3.74 4.68 0 4 C0 2.68 0 1.36 0 0 Z " fill="#89847E" transform="translate(240,231)"/>
<path d="M0 0 C1.32 0.66 2.64 1.32 4 2 C3.0409375 2.1546875 3.0409375 2.1546875 2.0625 2.3125 C1.381875 2.539375 0.70125 2.76625 0 3 C-0.33 3.99 -0.66 4.98 -1 6 C-1.66 6 -2.32 6 -3 6 C-3.33 6.66 -3.66 7.32 -4 8 C-4.99 7.67 -5.98 7.34 -7 7 C-7 6.34 -7 5.68 -7 5 C-7.99 4.67 -8.98 4.34 -10 4 C-8.906875 3.71125 -7.81375 3.4225 -6.6875 3.125 C-2.95986155 2.18106796 -2.95986155 2.18106796 0 0 Z " fill="#634533" transform="translate(160,141)"/>
<path d="M0 0 C0.66 0 1.32 0 2 0 C2 2.64 2 5.28 2 8 C1.01 8.33 0.02 8.66 -1 9 C-1.125 2.25 -1.125 2.25 0 0 Z M-3 1 C-2.67 1 -2.34 1 -2 1 C-1.67 4.96 -1.34 8.92 -1 13 C-1.66 12.67 -2.32 12.34 -3 12 C-3 8.37 -3 4.74 -3 1 Z " fill="#353534" transform="translate(89,455)"/>
<path d="M0 0 C3.63 0.33 7.26 0.66 11 1 C11 1.99 11 2.98 11 4 C7.37 4 3.74 4 0 4 C0 2.68 0 1.36 0 0 Z " fill="#938E86" transform="translate(236,263)"/>
<path d="M0 0 C0.99 0 1.98 0 3 0 C3.94401042 1.7578125 4.88802083 3.515625 5.83203125 5.2734375 C7.04763493 7.30502365 7.04763493 7.30502365 10 9 C10 9.99 10 10.98 10 12 C7.525 11.01 7.525 11.01 5 10 C5 9.01 5 8.02 5 7 C4.34 7 3.68 7 3 7 C3 6.34 3 5.68 3 5 C2.34 5 1.68 5 1 5 C0.67 3.35 0.34 1.7 0 0 Z " fill="#89847C" transform="translate(225,253)"/>
<path d="M0 0 C1.32 1.65 2.64 3.3 4 5 C-1.29230769 8.07692308 -1.29230769 8.07692308 -4.875 7.6875 C-5.57625 7.460625 -6.2775 7.23375 -7 7 C-5.625 5 -5.625 5 -4 3 C-3.34 3 -2.68 3 -2 3 C-1.34 2.01 -0.68 1.02 0 0 Z " fill="#5B3112" transform="translate(188,131)"/>
<path d="M0 0 C0.99 0.33 1.98 0.66 3 1 C4 7.75 4 7.75 4 10 C3.01 10 2.02 10 1 10 C0.01 7.03 -0.98 4.06 -2 1 C-1.34 0.67 -0.68 0.34 0 0 Z " fill="#14120F" transform="translate(259,232)"/>
<path d="M0 0 C0.66 0.99 1.32 1.98 2 3 C-2.13513514 9.56756757 -2.13513514 9.56756757 -6.125 11.5625 C-9 12 -9 12 -12 10 C-10.7625 9.649375 -9.525 9.29875 -8.25 8.9375 C-4.81099177 7.68140834 -3.28910557 6.51473968 -1.5 3.3125 C-1.005 2.219375 -0.51 1.12625 0 0 Z " fill="#A09B94" transform="translate(258,258)"/>
<path d="M0 0 C0.66 0.33 1.32 0.66 2 1 C2 5.62 2 10.24 2 15 C1.01 15.495 1.01 15.495 0 16 C-1.03354508 12.89936477 -1.13364996 10.68555932 -1.125 7.4375 C-1.12757813 6.46683594 -1.13015625 5.49617187 -1.1328125 4.49609375 C-1 2 -1 2 0 0 Z " fill="#ADA89F" transform="translate(221,240)"/>
<path d="M0 0 C2 3 2 3 2 5 C2.66 5 3.32 5 4 5 C4 5.66 4 6.32 4 7 C4.66 7 5.32 7 6 7 C7.625 9.5 7.625 9.5 9 12 C6 12 6 12 4.4296875 10.57421875 C3.91664063 9.95160156 3.40359375 9.32898438 2.875 8.6875 C2.35679687 8.07261719 1.83859375 7.45773437 1.3046875 6.82421875 C0 5 0 5 -1 2 C-0.67 1.34 -0.34 0.68 0 0 Z " fill="#352E26" transform="translate(224,253)"/>
<path d="M0 0 C1.98 0.99 1.98 0.99 4 2 C4 4.64 4 7.28 4 10 C2.68 10.33 1.36 10.66 0 11 C0 7.37 0 3.74 0 0 Z " fill="#847D73" transform="translate(238,245)"/>
<path d="M0 0 C0.33 0 0.66 0 1 0 C1.08333357 4.8333472 0.95261487 9.23692563 0 14 C0.66 14 1.32 14 2 14 C2 15.65 2 17.3 2 19 C1.34 19.33 0.68 19.66 0 20 C-2.12390495 13.62828516 -1.13495783 6.5260075 0 0 Z " fill="#4C4C4C" transform="translate(93,380)"/>
<path d="M0 0 C3.96 0.33 7.92 0.66 12 1 C11.67 1.99 11.34 2.98 11 4 C8 5 8 5 5.95703125 4.22265625 C5.24933594 3.83980469 4.54164063 3.45695313 3.8125 3.0625 C3.09707031 2.68222656 2.38164062 2.30195313 1.64453125 1.91015625 C1.10183594 1.60980469 0.55914062 1.30945313 0 1 C0 0.67 0 0.34 0 0 Z " fill="#15110F" transform="translate(240,147)"/>
<path d="M0 0 C-0.99 0.33 -1.98 0.66 -3 1 C-3 2.32 -3 3.64 -3 5 C-5.31 4.67 -7.62 4.34 -10 4 C-10 3.34 -10 2.68 -10 2 C-3.375 -1.125 -3.375 -1.125 0 0 Z " fill="#E4DEDB" transform="translate(169,148)"/>
<path d="M0 0 C-1.74310252 2.11007147 -2.86337925 2.95559826 -5.5 3.8125 C-8 4 -8 4 -11 2 C-3.57142857 -1.57142857 -3.57142857 -1.57142857 0 0 Z " fill="#1F1E1E" transform="translate(153,147)"/>
<path d="M0 0 C0.33 0 0.66 0 1 0 C1.1953125 2.01822917 1.390625 4.03645833 1.5859375 6.0546875 C1.86374749 8.22668245 1.86374749 8.22668245 4 10 C3.34 10 2.68 10 2 10 C2 11.65 2 13.3 2 15 C1.01 14.67 0.02 14.34 -1 14 C-0.67 9.38 -0.34 4.76 0 0 Z " fill="#3A3A3A" transform="translate(59,264)"/>
<path d="M0 0 C3.55780196 0.60990891 6.6828589 1.5783681 10 3 C10 3.99 10 4.98 10 6 C6.44219804 5.39009109 3.3171411 4.4216319 0 3 C0 2.01 0 1.02 0 0 Z " fill="#131312" transform="translate(276,160)"/>
<path d="M0 0 C-0.33 1.32 -0.66 2.64 -1 4 C-5.455 4.495 -5.455 4.495 -10 5 C-10 4.34 -10 3.68 -10 3 C-3.375 0 -3.375 0 0 0 Z " fill="#1B1B1B" transform="translate(132,154)"/>
<path d="M0 0 C1.32 0.33 2.64 0.66 4 1 C4 1.66 4 2.32 4 3 C5.32 3.33 6.64 3.66 8 4 C8 4.99 8 5.98 8 7 C5.07120629 6.37240135 2.63904371 5.41377341 0 4 C0 2.68 0 1.36 0 0 Z " fill="#46230E" transform="translate(196,129)"/>
<path d="M0 0 C0.66 0 1.32 0 2 0 C5.07692308 5.41538462 5.07692308 5.41538462 4.6875 8.375 C4.460625 8.91125 4.23375 9.4475 4 10 C2.68 9.34 1.36 8.68 0 8 C0.66 8 1.32 8 2 8 C1.65772428 5.02934491 1.65772428 5.02934491 1 2 C0.34 1.67 -0.32 1.34 -1 1 C-0.67 0.67 -0.34 0.34 0 0 Z " fill="#7A746E" transform="translate(252,237)"/>
<path d="M0 0 C0.99 0.33 1.98 0.66 3 1 C3 3.31 3 5.62 3 8 C2.01 8.33 1.02 8.66 0 9 C-0.66 8.67 -1.32 8.34 -2 8 C-1.125 2.25 -1.125 2.25 0 0 Z " fill="#303030" transform="translate(76,208)"/>
<path d="M0 0 C-0.33 1.98 -0.66 3.96 -1 6 C-2.98 5.34 -4.96 4.68 -7 4 C-3.375 0 -3.375 0 0 0 Z " fill="#6C4325" transform="translate(193,114)"/>
<path d="M0 0 C0.99 0.33 1.98 0.66 3 1 C0.36 3.97 -2.28 6.94 -5 10 C-5.33 9.01 -5.66 8.02 -6 7 C-4.78515625 5.17578125 -4.78515625 5.17578125 -3.0625 3.3125 C-2.49660156 2.68988281 -1.93070313 2.06726563 -1.34765625 1.42578125 C-0.90292969 0.95527344 -0.45820313 0.48476562 0 0 Z " fill="#BDB8B1" transform="translate(228,231)"/>
<path d="M0 0 C0.66 0.99 1.32 1.98 2 3 C-3.94 2.01 -3.94 2.01 -10 1 C-10 0.67 -10 0.34 -10 0 C-3.23076923 -1.38461538 -3.23076923 -1.38461538 0 0 Z M-4 3 C-1 4 -1 4 -1 4 Z " fill="#1F1E1E" transform="translate(230,154)"/>
<path d="M0 0 C0 0.66 0 1.32 0 2 C-0.66 2 -1.32 2 -2 2 C-2 2.66 -2 3.32 -2 4 C-3.375 5.625 -3.375 5.625 -5 7 C-5.66 7 -6.32 7 -7 7 C-7.33 5.68 -7.66 4.36 -8 3 C-3.375 0 -3.375 0 0 0 Z " fill="#837D77" transform="translate(256,259)"/>
<path d="M0 0 C0.33 0.99 0.66 1.98 1 3 C1.99 3 2.98 3 4 3 C4 3.99 4 4.98 4 6 C2.02 6.99 2.02 6.99 0 8 C-0.38063221 5.6739143 -0.71269945 3.33944736 -1 1 C-0.67 0.67 -0.34 0.34 0 0 Z " fill="#1C1713" transform="translate(229,241)"/>
<path d="M0 0 C-0.33 1.65 -0.66 3.3 -1 5 C-2.65 5.33 -4.3 5.66 -6 6 C-6 5.01 -6 4.02 -6 3 C-2.66666667 0 -2.66666667 0 0 0 Z " fill="#5C3010" transform="translate(180,135)"/>
<path d="M0 0 C0.66 0.99 1.32 1.98 2 3 C1.125 5.6875 1.125 5.6875 0 8 C-1.32 7.01 -2.64 6.02 -4 5 C-2.68 3.35 -1.36 1.7 0 0 Z " fill="#6D4A30" transform="translate(182,121)"/>
<path d="M0 0 C2.64 0 5.28 0 8 0 C8 0.99 8 1.98 8 3 C5.69 3.33 3.38 3.66 1 4 C0.67 2.68 0.34 1.36 0 0 Z " fill="#684227" transform="translate(194,113)"/>
<path d="M0 0 C0.66 0 1.32 0 2 0 C2 1.65 2 3.3 2 5 C-0.64738916 6.4606285 -1.89448334 7 -5 7 C-4.21654285 5.82780457 -3.42297164 4.66236332 -2.625 3.5 C-2.18414062 2.8503125 -1.74328125 2.200625 -1.2890625 1.53125 C-0.65097656 0.77328125 -0.65097656 0.77328125 0 0 Z " fill="#B4B4B4" transform="translate(94,282)"/>
<path d="M0 0 C2.33944736 0.28730055 4.6739143 0.61936779 7 1 C7 2.32 7 3.64 7 5 C1.25 3.25 1.25 3.25 -1 1 C-0.67 0.67 -0.34 0.34 0 0 Z " fill="#4D3022" transform="translate(204,135)"/>
<path d="M0 0 C1.32 0 2.64 0 4 0 C4 1.98 4 3.96 4 6 C3.67 4.68 3.34 3.36 3 2 C0.48916886 3.25541557 0.12874554 4.50063488 -1 7 C-1.04254356 5.00045254 -1.04080783 2.99958364 -1 1 C-0.67 0.67 -0.34 0.34 0 0 Z " fill="#DFD9D0" transform="translate(240,244)"/>
<path d="M0 0 C2.9375 0.75 2.9375 0.75 6 2 C6.875 4.125 6.875 4.125 7 6 C4.0625 5.25 4.0625 5.25 1 4 C0.125 1.875 0.125 1.875 0 0 Z " fill="#1E1E1E" transform="translate(263,154)"/>
<path d="M0 0 C1.65 0 3.3 0 5 0 C5.33 0.99 5.66 1.98 6 3 C6.66 3.33 7.32 3.66 8 4 C7.34 4.66 6.68 5.32 6 6 C6 5.34 6 4.68 6 4 C4.68 3.67 3.36 3.34 2 3 C2 2.34 2 1.68 2 1 C1.34 0.67 0.68 0.34 0 0 Z " fill="#401D06" transform="translate(225,142)"/>
<path d="M0 0 C0.66 0 1.32 0 2 0 C2.33 2.97 2.66 5.94 3 9 C0.9375 6.75 0.9375 6.75 -1 4 C-0.75 1.6875 -0.75 1.6875 0 0 Z " fill="#282828" transform="translate(286,318)"/>
<path d="M0 0 C0.33 0 0.66 0 1 0 C1 1.65 1 3.3 1 5 C-0.65 5.33 -2.3 5.66 -4 6 C-4.33 5.01 -4.66 4.02 -5 3 C-3.68 3.33 -2.36 3.66 -1 4 C-0.67 2.68 -0.34 1.36 0 0 Z " fill="#CFCBC2" transform="translate(252,252)"/>
<path d="M0 0 C2.96175123 0.61277612 4.38058783 1.25372522 7 3 C7 3.99 7 4.98 7 6 C4.525 5.01 4.525 5.01 2 4 C2 3.01 2 2.02 2 1 C1.34 0.67 0.68 0.34 0 0 Z " fill="#969189" transform="translate(228,259)"/>
<path d="M0 0 C0.66 0 1.32 0 2 0 C0.75023244 3.65316671 0.32901247 4.78065836 -3 7 C-3.33 6.01 -3.66 5.02 -4 4 C-3.34 4 -2.68 4 -2 4 C-2 3.34 -2 2.68 -2 2 C-1.34 2 -0.68 2 0 2 C0 1.34 0 0.68 0 0 Z " fill="#241D17" transform="translate(256,259)"/>
<path d="M0 0 C0.66 0.33 1.32 0.66 2 1 C2.59355614 3.64860427 2.74209269 6.29197322 3 9 C2.34 8.67 1.68 8.34 1 8 C0.26924352 5.6859378 -0.40138258 3.35171131 -1 1 C-0.67 0.67 -0.34 0.34 0 0 Z " fill="#161616" transform="translate(316,247)"/>
<path d="M0 0 C1.98 0 3.96 0 6 0 C5.67 1.65 5.34 3.3 5 5 C4.67 4.01 4.34 3.02 4 2 C2.68 2 1.36 2 0 2 C0 1.34 0 0.68 0 0 Z " fill="#BFBAB2" transform="translate(230,242)"/>
<path d="M0 0 C0.99 0.33 1.98 0.66 3 1 C2.34 2.98 1.68 4.96 1 7 C0.34 6.34 -0.32 5.68 -1 5 C-0.625 2.375 -0.625 2.375 0 0 Z " fill="#181511" transform="translate(221,233)"/>
<path d="M0 0 C-1.33332095 3.99996286 -3.4957827 4.83782337 -7 7 C-7.66 6.67 -8.32 6.34 -9 6 C-7.8803014 4.99406757 -6.7540588 3.9954151 -5.625 3 C-4.68527344 2.1646875 -4.68527344 2.1646875 -3.7265625 1.3125 C-2 0 -2 0 0 0 Z " fill="#2B2B2B" transform="translate(99,167)"/>
<path d="M0 0 C2.96175123 0.61277612 4.38058783 1.25372522 7 3 C6.67 3.66 6.34 4.32 6 5 C3 4 3 4 0 2 C0 1.34 0 0.68 0 0 Z " fill="#473932" transform="translate(228,147)"/>
<path d="M0 0 C0.33 0.66 0.66 1.32 1 2 C2.65 2 4.3 2 6 2 C4.8125 3.5625 4.8125 3.5625 3 5 C0.3125 4.6875 0.3125 4.6875 -2 4 C-1.34 2.68 -0.68 1.36 0 0 Z " fill="#5E351F" transform="translate(183,134)"/>
</svg>
