<?xml version="1.0" encoding="UTF-8"?>
<svg version="1.1" xmlns="http://www.w3.org/2000/svg" width="512" height="512">
<path d="M0 0 C1.22127889 -0.00551503 1.22127889 -0.00551503 2.46723008 -0.01114148 C5.21092741 -0.02220443 7.9545869 -0.02602657 10.69830322 -0.02983093 C12.65928265 -0.03609361 14.62026088 -0.04274024 16.58123779 -0.04974365 C21.9201908 -0.06717156 27.25913483 -0.07771029 32.59810925 -0.08594918 C35.93194676 -0.09109553 39.26578147 -0.09717143 42.599617 -0.10346031 C53.02525407 -0.12251737 63.45088403 -0.13674742 73.87653518 -0.14507228 C85.92072604 -0.15484765 97.96473326 -0.18117291 110.0088594 -0.22157317 C119.31167819 -0.25170979 128.61444428 -0.26653883 137.91731095 -0.26985329 C143.47650938 -0.27220658 149.03551173 -0.28120327 154.5946579 -0.30631447 C159.82478251 -0.3295572 165.05458144 -0.33384366 170.28474426 -0.32355309 C172.20440503 -0.32305669 174.12408161 -0.32940758 176.04369354 -0.34310913 C178.66493755 -0.36077178 181.28500563 -0.35374992 183.90625 -0.34057617 C184.66559837 -0.35154542 185.42494674 -0.36251466 186.20730567 -0.37381631 C193.0030784 -0.2913814 197.00799106 2.69600129 201.6552887 7.34812927 C202.57422157 8.26077042 202.57422157 8.26077042 203.51171875 9.19184875 C204.48688446 10.17544373 204.48688446 10.17544373 205.48175049 11.1789093 C206.53404091 12.2283522 206.53404091 12.2283522 207.60758972 13.29899597 C209.91259158 15.60030912 212.21034166 17.90871454 214.50787354 20.21748352 C216.1107953 21.82159791 217.71408747 23.42534224 219.31773376 25.0287323 C222.67043665 28.38299657 226.01976043 31.74058631 229.36651611 35.1007843 C233.66348555 39.41479104 237.96705659 43.72213755 242.2729311 48.0272541 C245.58023538 51.33482975 248.88493142 54.64500075 252.18874168 57.95606613 C253.77543125 59.54594392 255.36273256 61.13521144 256.95064735 62.72386551 C259.16276649 64.93814385 261.37156669 67.15567788 263.57940674 69.3742218 C264.23963837 70.03400024 264.89987 70.69377869 265.58010864 71.37355042 C266.47789284 72.27773209 266.47789284 72.27773209 267.39381409 73.20018005 C267.91605214 73.72409395 268.4382902 74.24800785 268.97635365 74.78779793 C270.7492831 76.74603058 271.21005369 78.16271841 271.70709229 80.77217102 C270.51770444 88.80053898 260.83796221 95.66337315 255.28131104 101.20576477 C254.45250931 102.03552322 253.62370758 102.86528168 252.76979065 103.72018433 C251.03226433 105.45838675 249.29349218 107.19534464 247.55352783 108.93110657 C244.8815441 111.59769284 242.21499173 114.2696279 239.54888916 116.9420929 C237.85585069 118.63447128 236.16250244 120.32653983 234.46881104 122.01826477 C233.66988937 122.81921066 232.87096771 123.62015656 232.0478363 124.44537354 C231.30979263 125.18026505 230.57174896 125.91515656 229.81134033 126.6723175 C229.16182907 127.32103317 228.51231781 127.96974884 227.84312439 128.63812256 C224.42833549 131.78786634 223.50155095 131.14717102 218.20709229 131.14717102 C207.81209229 120.75217102 207.81209229 120.75217102 197.20709229 110.14717102 C196.87709229 133.90717102 196.54709229 157.66717102 196.20709229 182.14717102 C203.3910376 182.11236633 210.57498291 182.07756165 217.97662354 182.04170227 C222.52025142 182.0263787 227.06384758 182.01193719 231.60748291 182.00068665 C238.82377719 181.98273384 246.03995759 181.96146646 253.25616455 181.92085266 C259.07220904 181.88832298 264.88813145 181.87033144 270.70425987 181.86253929 C272.92629608 181.85698429 275.14832541 181.84613714 277.37030983 181.82998085 C280.47596447 181.80829174 283.58111077 181.80520055 286.68682861 181.80659485 C287.61111664 181.79580902 288.53540466 181.78502319 289.48770142 181.77391052 C290.33324081 181.77803452 291.17878021 181.78215851 292.04994202 181.78640747 C292.78461102 181.78364209 293.51928003 181.78087671 294.27621174 181.77802753 C296.80931346 182.26230296 297.59062163 183.16630662 299.20709229 185.14717102 C299.47003949 188.13181684 299.55237519 190.91756496 299.50773621 193.90080261 C299.51030916 195.77485971 299.51439025 197.64891517 299.51974583 199.52296638 C299.5184631 200.52588982 299.51718037 201.52881325 299.51585877 202.56212831 C299.54741362 231.02133335 302.499784 258.98845301 305.76057172 287.22759485 C306.45249081 293.26061754 307.12286178 299.29599903 307.79342055 305.33142661 C309.11890176 317.25671 310.46197766 329.17993403 311.81817627 341.10176086 C313.12713663 352.60887692 314.43123187 364.1165187 315.72637939 375.62519836 C315.80676555 376.3394729 315.88715171 377.05374744 315.96997381 377.78966667 C316.84908481 385.60286654 317.72608756 393.41630065 318.60039425 401.2300396 C318.67733947 401.91767697 318.75428469 402.60531434 318.83356158 403.31378921 C319.1411601 406.06301587 319.44872704 408.81224601 319.75601672 411.56150721 C320.72119677 420.19640297 321.69582388 428.83013292 322.68090641 437.46278405 C323.24270357 442.39700668 323.79831276 447.33191338 324.35254669 452.26699066 C324.60940373 454.54162081 324.86893011 456.81595147 325.13141441 459.08993912 C329.10931137 493.5814129 329.10931137 493.5814129 324.20709229 501.14717102 C320.03850795 506.32034663 315.73948645 510.36372549 309.20709229 512.14717102 C304.57645071 512.61045519 299.96360304 512.61519408 295.31256104 512.61592102 C293.95646353 512.62303577 292.60036899 512.63073665 291.24427795 512.63899231 C288.40912502 512.65239352 285.57425032 512.65402638 282.73907471 512.64814758 C279.13121558 512.64226349 275.52470778 512.67280702 271.91710949 512.71326447 C269.11752817 512.73929964 266.31826514 512.74200462 263.51857948 512.7383728 C261.55010692 512.74085784 259.58170139 512.76544305 257.61338806 512.79060364 C248.90657358 512.72408088 242.18202374 511.28735012 235.37840271 505.62532043 C228.151171 498.1427519 227.4588755 486.71043968 225.93878174 476.89472961 C225.73351868 475.60579803 225.52825562 474.31686646 225.31677246 472.98887634 C224.75915922 469.48639963 224.20997616 465.98264931 223.66239953 462.47859144 C223.08682182 458.80496335 222.50335785 455.132588 221.92076111 451.46006775 C220.82098101 444.51973564 219.7282066 437.57831982 218.63800067 430.63647807 C217.39554257 422.72742889 216.1451945 414.8196334 214.89421141 406.91192889 C212.32311201 390.65837989 209.76183027 374.40329993 207.20709229 358.14717102 C205.38857099 364.86040859 204.25936514 371.59188143 203.20758057 378.46308899 C203.01864227 379.67714417 202.82970398 380.89119934 202.63504028 382.14204407 C202.22653088 384.7684929 201.81928659 387.39510427 201.41397476 390.02204514 C200.7712275 394.18489351 200.121096 398.34656805 199.46951294 402.50804138 C197.61827404 414.3369851 195.77223969 426.16671363 193.94390869 437.9992218 C192.93235005 444.54537488 191.91225564 451.09013884 190.8827647 457.6334964 C190.33964737 461.08793843 189.80090082 464.54293395 189.27280045 467.99970627 C188.68314304 471.85933624 188.07494342 475.71592323 187.46539307 479.57246399 C187.2111557 481.26697189 187.2111557 481.26697189 186.95178223 482.99571228 C185.5572295 491.66513107 183.87616417 500.83382279 176.76959229 506.64717102 C176.02838135 507.27623352 175.28717041 507.90529602 174.52349854 508.55342102 C170.07910937 511.61128068 166.34345684 512.39999911 160.98321533 512.43769836 C159.13055305 512.45683792 159.13055305 512.45683792 157.24046326 512.47636414 C155.89991412 512.47942235 154.55936287 512.48164981 153.21881104 512.48310852 C151.83264531 512.48954241 150.44648093 512.49627121 149.06031799 512.50328064 C146.15779475 512.51523545 143.25539035 512.51896341 140.35284424 512.51777649 C136.65078623 512.51757358 132.94949832 512.5448534 129.24762249 512.57932091 C126.38467475 512.60166519 123.52191002 512.60561173 120.65888405 512.60455704 C119.29504561 512.60690255 117.93120131 512.61566643 116.56744957 512.63122177 C107.51233343 512.72482558 101.12808795 512.293001 94.00006104 506.28779602 C86.19145017 497.09225427 85.54934088 489.50833423 86.47997856 477.6783123 C86.87239702 473.68205475 87.30495872 469.69206445 87.75177002 465.70161438 C87.91813209 464.17621706 88.0839806 462.65076366 88.24935913 461.1252594 C88.69642039 457.01578945 89.15087689 452.90716924 89.60695529 448.79869151 C90.08411912 444.49059485 90.55508569 440.18182014 91.02693176 435.87313843 C91.81893909 428.6496515 92.61566102 421.42669674 93.41534424 414.20405579 C94.34033185 405.84925018 95.25833369 397.49369967 96.17253727 389.13770765 C97.05309076 381.09034048 97.93800947 373.04345953 98.82512093 364.99681282 C99.20243215 361.57394809 99.57829869 358.15092924 99.95303154 354.7277813 C100.39350747 350.70624847 100.83782366 346.68515823 101.28516006 342.66438293 C101.44895158 341.18664691 101.61142394 339.70876401 101.77250481 338.23073006 C101.99192481 336.2194479 102.2165397 334.20873447 102.44145203 332.19805908 C102.56589408 331.07116637 102.69033613 329.94427366 102.81854916 328.78323269 C103.20709229 326.14717102 103.20709229 326.14717102 104.20709229 324.14717102 C103.67744873 324.30999573 103.14780518 324.47282043 102.60211182 324.64057922 C73.40392336 330.81654671 34.7137492 321.29279467 6.01959229 314.58467102 C4.80183105 314.30405823 3.58406982 314.02344543 2.32940674 313.73432922 C1.20236328 313.45677795 0.07531982 313.17922668 -1.08587646 312.89326477 C-2.07096191 312.65277405 -3.05604736 312.41228333 -4.07098389 312.164505 C-7.41460477 310.91480833 -9.28952067 309.71824762 -11.79290771 307.14717102 C-12.29669806 304.29718268 -12.47244459 302.03751553 -12.43214417 299.18727112 C-12.44467768 297.97545485 -12.44467768 297.97545485 -12.4574644 296.73915744 C-12.47943372 294.02869626 -12.46577577 291.31958488 -12.45233154 288.60908508 C-12.46078224 286.66762257 -12.47142519 284.72616853 -12.48410034 282.784729 C-12.51230543 277.510223 -12.50976464 272.23612284 -12.5018065 266.96156406 C-12.49868671 261.45084157 -12.52370031 255.94024954 -12.54576111 250.42958069 C-12.58325254 239.99260513 -12.59535212 229.55575988 -12.59838551 219.11872363 C-12.60307081 207.23729457 -12.63597715 195.3559965 -12.67128336 183.47462511 C-12.74328186 159.03215629 -12.77974487 134.58973731 -12.79290771 110.14717102 C-13.39763916 110.78332336 -14.00237061 111.41947571 -14.62542725 112.0749054 C-16.88336633 114.43530122 -19.15436858 116.781421 -21.43548584 119.11933899 C-22.41857267 120.13254014 -23.39620011 121.15106897 -24.36810303 122.17500305 C-25.76899788 123.6489507 -27.18863261 125.10240514 -28.61322021 126.55342102 C-29.8857666 127.87309875 -29.8857666 127.87309875 -31.184021 129.21943665 C-34.33969497 131.55119799 -35.95338 131.64479318 -39.79290771 131.14717102 C-41.81037903 129.92971802 -41.81037903 129.92971802 -43.60174561 128.20503235 C-44.28149445 127.56248505 -44.96124329 126.91993774 -45.66159058 126.25791931 C-46.36492523 125.56137238 -47.06825989 124.86482544 -47.79290771 124.14717102 C-48.8620491 123.11407303 -48.8620491 123.11407303 -49.95278931 122.06010437 C-52.2722327 119.79975548 -54.56436643 117.51440918 -56.85150146 115.22138977 C-57.68125992 114.39258804 -58.51101837 113.56378632 -59.36592102 112.70986938 C-61.10412345 110.97234307 -62.84108134 109.23357091 -64.57684326 107.49360657 C-67.24342954 104.82162284 -69.91536459 102.15507046 -72.58782959 99.4889679 C-74.28020798 97.79592943 -75.97227652 96.10258117 -77.66400146 94.40888977 C-78.46494736 93.60996811 -79.26589325 92.81104645 -80.09111023 91.98791504 C-80.82600174 91.24987137 -81.56089325 90.5118277 -82.3180542 89.75141907 C-83.2911277 88.77715218 -83.2911277 88.77715218 -84.28385925 87.78320312 C-86.2337759 85.66920459 -86.75492321 84.34693987 -87.29519653 81.50552368 C-86.5259984 76.36258899 -83.39279923 73.94858193 -79.75628662 70.41352844 C-79.00847427 69.66323364 -78.26066193 68.91293884 -77.4901886 68.13990784 C-75.01406015 65.66286089 -72.51723147 63.20785598 -70.01947021 60.75263977 C-68.29666844 59.03849111 -66.57511638 57.32308559 -64.85476685 55.60647583 C-60.32154586 51.09049525 -55.77015512 46.59325048 -51.21520996 42.09919739 C-47.49316594 38.42076441 -43.78418182 34.72931851 -40.07583046 31.03708935 C-35.66547366 26.64630968 -31.24964007 22.26106038 -26.83197021 17.87763977 C-25.98468983 17.03678518 -25.13740944 16.1959306 -24.26445389 15.32959557 C-21.87532241 12.96137422 -19.48255463 10.59689952 -17.08831787 8.23384094 C-16.37550156 7.52685562 -15.66268524 6.8198703 -14.92826843 6.09146118 C-13.95230965 5.13057083 -13.95230965 5.13057083 -12.95663452 4.15026855 C-12.39065363 3.59115878 -11.82467274 3.03204901 -11.24154091 2.45599651 C-7.89423908 -0.56825696 -4.26132064 -0.00102259 0 0 Z M-37.58105469 43.66938782 C-41.40159041 47.83165249 -45.3210593 51.8985442 -49.23236084 55.97529602 C-56.85037455 63.94397868 -64.35556052 72.00986254 -71.79290771 80.14717102 C-70.44717885 83.14661007 -68.9575367 85.22793281 -66.62835693 87.53877258 C-65.98784393 88.17913452 -65.34733093 88.81949646 -64.68740845 89.47926331 C-63.99777008 90.1585791 -63.30813171 90.8378949 -62.59759521 91.53779602 C-61.89015167 92.24240967 -61.18270813 92.94702332 -60.4538269 93.67298889 C-58.1965091 95.91912492 -55.93233138 98.15820111 -53.66790771 100.39717102 C-52.13489818 101.92014819 -50.60234056 103.44358041 -49.07025146 104.96748352 C-45.31636199 108.69933917 -41.55681857 112.42542453 -37.79290771 116.14717102 C-33.7827061 114.30637354 -31.16728076 111.66203546 -28.17962646 108.48310852 C-27.08598178 107.3495658 -25.99155631 106.21677595 -24.89642334 105.08467102 C-23.18336548 103.303543 -21.47631538 101.51782391 -19.78240967 99.71846008 C-18.13905563 97.97807354 -16.4741787 96.26082858 -14.80462646 94.54560852 C-14.3064592 94.00503815 -13.80829193 93.46446777 -13.29502869 92.90751648 C-10.47254326 90.04456019 -9.03561464 89.17262425 -4.97967529 88.74726868 C-1.79290771 89.14717102 -1.79290771 89.14717102 -0.79290771 90.14717102 C-0.6826515 92.85274062 -0.63794074 95.53333143 -0.63468933 98.23983765 C-0.62728237 99.52743828 -0.62728237 99.52743828 -0.61972576 100.84105104 C-0.60427149 103.74004535 -0.59596881 106.63901739 -0.58758545 109.53804016 C-0.57801314 111.60712889 -0.56800346 113.67621564 -0.55758667 115.74530029 C-0.53046132 121.38141234 -0.50949321 127.01753283 -0.48958468 132.65367436 C-0.46777202 138.5367305 -0.44036032 144.41976041 -0.41352844 150.30279541 C-0.36353752 161.45169429 -0.31862252 172.60060767 -0.27550608 183.74953502 C-0.22618827 196.43857233 -0.17124997 209.12758332 -0.11582649 221.8165952 C-0.00190824 247.9267626 0.10490925 274.03695524 0.20709229 300.14717102 C4.20901098 301.10745709 8.21258429 302.06044946 12.21766663 303.00743103 C13.57278888 303.32883522 14.92748431 303.6520457 16.2816925 303.97727966 C29.80533849 307.22270336 43.3914789 309.49501147 57.20709229 311.14717102 C58.46187378 311.30512146 58.46187378 311.30512146 59.74200439 311.46626282 C68.93096704 312.47585419 78.16440948 312.25651577 87.39459229 312.20967102 C89.12701286 312.20464481 90.85943486 312.20008389 92.59185791 312.19599915 C96.79697156 312.18508504 101.00201594 312.16788254 105.20709229 312.14717102 C107.47476109 297.94566056 109.15226575 283.68437671 110.76959229 269.39717102 C110.84939205 268.69659702 110.92919182 267.99602303 111.01140976 267.27421951 C113.5379039 245.03005783 115.01398273 222.9975797 115.03155518 200.58760071 C115.03387146 199.62362869 115.03618774 198.65965668 115.03857422 197.66647339 C115.038929 195.88546642 115.02903869 194.10441444 115.00671387 192.32354736 C114.98836109 186.47526781 114.98836109 186.47526781 117.20709229 183.14717102 C119.99118042 182.7484436 119.99118042 182.7484436 123.58453369 182.71479797 C124.56520561 182.6995105 124.56520561 182.6995105 125.56568909 182.68391418 C127.73009698 182.65368144 129.89406312 182.64450317 132.05865479 182.63545227 C133.55796796 182.61861309 135.05726696 182.60046388 136.55654907 182.58105469 C140.50534636 182.5334654 144.45408616 182.50371417 148.40307617 182.47761536 C152.43161375 182.44785457 156.45995304 182.40130899 160.48834229 182.3561554 C168.39449508 182.27002088 176.30066575 182.20272114 184.20709229 182.14717102 C184.21739975 181.01155731 184.22770721 179.8759436 184.23832703 178.70591736 C184.33593118 168.02256417 184.43865275 157.33927093 184.54643154 146.6560154 C184.60168066 141.16317913 184.65510384 135.67033757 184.70440674 130.17744446 C184.75202095 124.88007737 184.80436268 119.58277647 184.86003304 114.28548813 C184.88046995 112.26082881 184.89918078 110.23615133 184.91616631 108.21146011 C184.94018075 105.38348553 184.97023932 102.55563676 185.00177002 99.72773743 C185.00752548 98.88401077 185.01328094 98.04028412 185.01921082 97.17098999 C185.09304012 91.37527534 185.09304012 91.37527534 186.20709229 89.14717102 C189.69829627 88.63803711 191.9940444 88.32064005 194.97857666 90.35420227 C195.57992432 90.90463196 196.18127197 91.45506165 196.80084229 92.02217102 C197.49564697 92.6577594 198.19045166 93.29334778 198.90631104 93.94819641 C203.24235355 98.09237457 207.48604555 102.32374521 211.70709229 106.58467102 C212.62490479 107.50699524 213.54271729 108.42931946 214.48834229 109.3795929 C216.73024283 111.63317001 218.96975828 113.88906177 221.20709229 116.14717102 C226.04008034 112.11969049 230.58819233 107.90337689 235.01568604 103.43623352 C235.62727066 102.82323395 236.23885529 102.21023437 236.86897278 101.57865906 C238.79656787 99.64552538 240.72063156 97.70892115 242.64459229 95.77217102 C243.96141632 94.45032403 245.27847155 93.1287073 246.59576416 91.80732727 C249.80221601 88.58992803 253.00550857 85.36941421 256.20709229 82.14717102 C254.51861431 77.94375272 251.47532994 74.90711854 248.44512939 71.63447571 C247.85410934 70.99015594 247.26308929 70.34583618 246.65415955 69.68199158 C241.15724858 63.71740382 235.56205304 57.845949 229.93663692 52.00265121 C226.16956858 48.08669274 222.44005452 44.14661595 218.78497314 40.12568665 C200.98249362 19.15080974 200.98249362 19.15080974 176.31969929 9.95845413 C169.18187893 9.83155766 162.18546497 10.68173556 155.20709229 12.14717102 C154.82073608 13.46346497 154.82073608 13.46346497 154.42657471 14.80635071 C154.0795752 15.96554016 153.73257568 17.12472961 153.37506104 18.31904602 C153.03499023 19.46470032 152.69491943 20.61035461 152.34454346 21.79072571 C147.49053155 36.11417617 136.30508841 45.36757444 123.20709229 52.14717102 C104.31171253 60.22806312 83.06715308 60.37824133 63.95709229 52.89717102 C49.67963231 46.468476 38.74415284 37.62800136 32.20709229 23.14717102 C31.64845093 21.25023275 31.1181098 19.34481623 30.61065674 17.43354797 C30.34614212 16.4434523 30.0816275 15.45335663 29.80909729 14.43325806 C29.61043564 13.67884933 29.41177399 12.92444061 29.20709229 12.14717102 C-2.68297926 5.1442402 -17.17803917 21.23533048 -37.58105469 43.66938782 Z M41.20709229 12.14717102 C44.83187479 24.83390977 51.35157426 32.85311133 62.72271729 39.65107727 C77.59376382 47.48409706 94.07359718 49.13561647 110.27105713 44.75410461 C121.79340062 41.14192984 132.42055379 34.21550351 139.21099854 24.08857727 C141.16010879 20.28972317 142.13478373 16.26709336 143.20709229 12.14717102 C139.90709229 12.14717102 136.60709229 12.14717102 133.20709229 12.14717102 C132.15521729 14.15810852 132.15521729 14.15810852 131.08209229 16.20967102 C125.40586709 26.32540196 118.17363651 32.63197597 107.14459229 36.52217102 C95.28848742 39.84021442 82.56528821 39.54168641 71.55474854 33.75263977 C64.88056279 29.88141603 59.53034202 26.20878895 55.45709229 19.52217102 C54.86412354 18.5605304 54.27115479 17.59888977 53.66021729 16.60810852 C52.7973808 15.14685318 51.9660065 13.66499946 51.20709229 12.14717102 C47.90709229 12.14717102 44.60709229 12.14717102 41.20709229 12.14717102 Z M65.20709229 12.14717102 C69.55135691 19.38761206 75.51752658 24.414531 83.76568604 26.70967102 C92.72558312 28.31528458 101.16577542 27.57047884 109.20709229 23.14717102 C112.82523388 20.41292442 116.18880377 17.53865356 119.20709229 14.14717102 C119.20709229 13.48717102 119.20709229 12.82717102 119.20709229 12.14717102 C101.38709229 12.14717102 83.56709229 12.14717102 65.20709229 12.14717102 Z M127.20709229 194.14717102 C127.20709229 203.38717102 127.20709229 212.62717102 127.20709229 222.14717102 C140.07709229 222.14717102 152.94709229 222.14717102 166.20709229 222.14717102 C166.20709229 212.90717102 166.20709229 203.66717102 166.20709229 194.14717102 C153.33709229 194.14717102 140.46709229 194.14717102 127.20709229 194.14717102 Z M178.20709229 194.14717102 C178.20709229 203.38717102 178.20709229 212.62717102 178.20709229 222.14717102 C197.01709229 222.14717102 215.82709229 222.14717102 235.20709229 222.14717102 C235.20709229 212.90717102 235.20709229 203.66717102 235.20709229 194.14717102 C216.39709229 194.14717102 197.58709229 194.14717102 178.20709229 194.14717102 Z M248.20709229 194.14717102 C248.20709229 203.38717102 248.20709229 212.62717102 248.20709229 222.14717102 C261.07709229 222.14717102 273.94709229 222.14717102 287.20709229 222.14717102 C287.20709229 212.90717102 287.20709229 203.66717102 287.20709229 194.14717102 C274.33709229 194.14717102 261.46709229 194.14717102 248.20709229 194.14717102 Z M126.20709229 234.14717102 C124.38381403 245.15500048 123.12066384 256.19631931 121.91998291 267.28681946 C121.58124367 270.4049827 121.23422324 273.52215459 120.88677979 276.63935852 C120.66752716 278.6471162 120.44876023 280.65492698 120.23052979 282.66279602 C120.127435 283.58175659 120.02434021 284.50071716 119.91812134 285.44752502 C119.32082904 291.0494446 119.11335981 296.51320539 119.20709229 302.14717102 C127.56620486 303.04702763 127.56620486 303.04702763 134.89459229 299.77217102 C138.22195251 295.99516752 138.33080393 294.27103071 138.32061768 289.32051086 C138.32050438 287.48883865 138.32050438 287.48883865 138.32038879 285.62016296 C138.3152818 284.28281107 138.3100658 282.94545959 138.30474854 281.60810852 C138.30288368 280.24333243 138.3014601 278.87855568 138.30046082 277.51377869 C138.29664091 273.92002009 138.28681512 270.32630185 138.27575684 266.7325592 C138.2655314 263.0660812 138.26096076 259.39959667 138.25592041 255.73310852 C138.24519238 248.53777549 138.22759984 241.34248405 138.20709229 234.14717102 C134.24709229 234.14717102 130.28709229 234.14717102 126.20709229 234.14717102 Z M150.20709229 234.14717102 C150.16842041 240.93795227 150.16842041 240.93795227 150.12896729 247.86592102 C150.10377948 250.74618477 150.07743202 253.6263455 150.04693604 256.50654602 C149.99871644 261.07100214 149.95462887 265.6352196 149.93609619 270.1999054 C149.92087247 273.88307442 149.88632773 277.56561607 149.83878326 281.24850464 C149.82402789 282.64854456 149.81605464 284.04867409 149.81520844 285.4487915 C149.79607398 301.24365803 149.79607398 301.24365803 143.7956543 307.65534973 C138.09763471 312.75879535 132.70690362 313.47796235 125.39459229 313.77217102 C124.60633057 313.8108429 123.81806885 313.84951477 123.00592041 313.88935852 C121.07333848 313.98305946 119.14024852 314.06617881 117.20709229 314.14717102 C113.5637242 345.03298534 110.09732548 375.93692442 106.70294189 406.85102844 C106.01760431 413.09264814 105.33002556 419.33401877 104.64184856 425.57532597 C104.10661644 430.4314397 103.57243119 435.28766812 103.03858376 440.14393425 C102.78490675 442.45054435 102.53092074 444.75712049 102.27661705 447.06366158 C101.92645515 450.24120374 101.57768336 453.41889534 101.22930908 456.59663391 C101.07277863 458.01336143 101.07277863 458.01336143 100.91308594 459.45870972 C100.77246986 460.74533508 100.77246986 460.74533508 100.62901306 462.05795288 C100.54701503 462.80406358 100.46501699 463.55017427 100.38053417 464.31889439 C100.17561152 466.17293362 100.17561152 466.17293362 100.20709229 468.14717102 C125.28709229 468.14717102 150.36709229 468.14717102 176.20709229 468.14717102 C179.17709229 450.82217102 179.17709229 450.82217102 182.20709229 433.14717102 C184.63238525 419.41181946 184.63238525 419.41181946 185.78343201 412.9044342 C187.95229606 400.58040581 190.03441574 388.24186035 192.08209229 375.89717102 C192.19059777 375.24400406 192.29910325 374.5908371 192.41089678 373.9178772 C200.18657508 327.05704062 203.63648256 281.65524741 201.20709229 234.14717102 C184.37709229 234.14717102 167.54709229 234.14717102 150.20709229 234.14717102 Z M213.20709229 234.14717102 C212.53616833 244.9532603 212.01415924 255.70514753 211.76959229 266.52217102 C211.75005116 267.38374062 211.73051003 268.24531021 211.71037674 269.13298798 C210.86956145 311.6937734 217.77293454 353.17134076 224.64459229 395.02217102 C224.78102347 395.85430083 224.91745465 396.68643064 225.05802011 397.54377651 C230.72396393 432.91912824 230.72396393 432.91912824 237.20709229 468.14717102 C262.28709229 468.14717102 287.36709229 468.14717102 313.20709229 468.14717102 C312.53483917 458.73562746 311.76497497 449.3992637 310.73248291 440.0292511 C310.58596324 438.68234029 310.43966367 437.33540552 310.29356384 435.9884491 C309.90139844 432.37941624 309.50596422 428.77074906 309.10969353 425.16216493 C308.77809739 422.13970502 308.44814629 419.11706642 308.1181798 416.09442824 C307.34045612 408.97039077 306.56005742 401.84664995 305.77789307 394.72309875 C304.97163027 387.37967402 304.16974017 380.03578101 303.36998034 372.69164544 C302.68106486 366.3666879 301.98958392 360.04201451 301.29600477 353.71756667 C300.88262505 349.94796307 300.47019585 346.17826179 300.06019592 342.40828896 C299.67574114 338.87432383 299.2880833 335.34072469 298.89792824 331.80738449 C298.6871782 329.89153622 298.47970705 327.97532816 298.27232361 326.05911255 C298.14618179 324.92248169 298.02003998 323.78585083 297.89007568 322.61477661 C297.78168114 321.62544034 297.67328659 320.63610407 297.56160736 319.61678791 C297.26369664 317.01995607 297.26369664 317.01995607 296.20709229 314.14717102 C295.07271729 314.12138977 293.93834229 314.09560852 292.76959229 314.06904602 C276.00647636 313.51888721 276.00647636 313.51888721 271.20709229 309.14717102 C266.03186469 302.91857852 264.11627546 298.04976014 264.00177002 290.00166321 C263.97185219 288.14018646 263.97185219 288.14018646 263.94132996 286.24110413 C263.92434836 284.89208602 263.90746945 283.54306661 263.89068604 282.19404602 C263.87010352 280.80970151 263.84910671 279.4253631 263.82771301 278.04103088 C263.77262621 274.40462702 263.72315815 270.76816769 263.67486572 267.13166809 C263.62455265 263.41803586 263.56896916 259.70448275 263.51373291 255.99092102 C263.4058182 248.70973196 263.30669134 241.42849762 263.20709229 234.14717102 C246.70709229 234.14717102 230.20709229 234.14717102 213.20709229 234.14717102 Z M275.20709229 234.14717102 C275.13743944 241.73612011 275.08420363 249.32503586 275.05165577 256.91423225 C275.03603066 260.43860834 275.01485085 263.96276497 274.98077393 267.48701477 C274.94180277 271.54302523 274.92735706 275.59880682 274.91412354 279.65498352 C274.89863968 280.91456879 274.88315582 282.17415405 274.86720276 283.47190857 C274.86697617 284.65267975 274.86674957 285.83345093 274.86651611 287.05000305 C274.85985428 288.08480804 274.85319244 289.11961304 274.84632874 290.18577576 C275.37279742 294.50739274 276.98002189 297.85223169 279.97271729 301.01045227 C283.06276679 302.58248795 285.51284311 302.4379985 288.95709229 302.33467102 C290.12756104 302.30760071 291.29802979 302.2805304 292.50396729 302.25263977 C293.39599854 302.21783508 294.28802979 302.1830304 295.20709229 302.14717102 C294.05705924 290.86296592 292.9006655 279.57943044 291.73736572 268.29658508 C291.40310157 265.05390621 291.07027528 261.81108754 290.73931885 258.56806946 C290.33781023 254.63557199 289.92924902 250.7038286 289.51959229 246.77217102 C289.4005957 245.59815735 289.28159912 244.42414368 289.15899658 243.21455383 C289.04725098 242.15333313 288.93550537 241.09211243 288.82037354 239.99873352 C288.72538574 239.07914856 288.63039795 238.1595636 288.53253174 237.21211243 C288.41675743 235.16070201 288.41675743 235.16070201 287.20709229 234.14717102 C285.1874503 234.07473049 283.16542105 234.06339914 281.14459229 234.08467102 C280.03986572 234.09369446 278.93513916 234.1027179 277.79693604 234.11201477 C276.9422876 234.12361633 276.08763916 234.1352179 275.20709229 234.14717102 Z M99.20709229 481.14717102 C97.47448094 489.40337477 97.47448094 489.40337477 99.83209229 493.45967102 C100.61584229 494.34654602 101.39959229 495.23342102 102.20709229 496.14717102 C102.81891357 496.85019348 103.43073486 497.55321594 104.06109619 498.27754211 C109.08489743 501.26312879 114.17970376 500.75745709 119.91802979 500.74873352 C121.15952789 500.75730377 122.401026 500.76587402 123.68014526 500.77470398 C126.97549022 500.78911741 130.27010311 500.78295316 133.56542969 500.77156067 C135.57762745 500.77216967 137.58864542 500.79222844 139.60064697 500.8195343 C143.477834 500.86860659 147.35307051 500.8768426 151.23052979 500.87373352 C153.02301651 500.90136276 153.02301651 500.90136276 154.85171509 500.92955017 C161.34704341 500.85759379 165.33235271 500.38677369 169.99777222 495.6660614 C173.64724029 491.08237666 173.45758142 487.14325791 174.20709229 481.14717102 C149.45709229 481.14717102 124.70709229 481.14717102 99.20709229 481.14717102 Z M240.20709229 481.14717102 C240.20709229 488.15712487 240.69784926 492.16744493 245.20709229 497.52217102 C248.5423794 500.2320918 251.44861816 500.28211547 255.59307861 500.32417297 C256.69464798 500.33700821 257.79621735 500.34984344 258.9311676 500.36306763 C260.12179306 500.37045456 261.31241852 500.37784149 262.53912354 500.38545227 C263.76362717 500.39352402 264.9881308 500.40159576 266.2497406 500.40991211 C268.84301335 500.42375129 271.4363043 500.43447418 274.02960205 500.44233704 C277.9934134 500.45955729 281.95639243 500.50344782 285.91998291 500.54756165 C288.43885698 500.5576879 290.95773815 500.56620421 293.47662354 500.57295227 C294.6611763 500.59046036 295.84572906 500.60796844 297.06617737 500.62600708 C303.41404103 500.6092918 307.41876539 500.49136033 312.20709229 496.14717102 C316.55859819 491.21546433 315.20709229 488.62753157 315.20709229 481.14717102 C290.45709229 481.14717102 265.70709229 481.14717102 240.20709229 481.14717102 Z " fill="#000000" transform="translate(135.79290771484375,-0.1471710205078125)"/>
</svg>
